<?xml version="1.0" standalone="no"?>
<!DOCTYPE svg PUBLIC "-//W3C//DTD SVG 20010904//EN"
 "http://www.w3.org/TR/2001/REC-SVG-20010904/DTD/svg10.dtd">
<svg version="1.0" xmlns="http://www.w3.org/2000/svg"
 width="500.000000pt" height="500.000000pt" viewBox="0 0 500.000000 500.000000"
 preserveAspectRatio="xMidYMid meet">

<g transform="translate(0.000000,500.000000) scale(0.100000,-0.100000)"
fill="#000000" stroke="none">
<path d="M1486 3080 c-37 -12 -94 -66 -112 -107 -10 -23 -14 -76 -14 -179 l0
-146 -33 -31 c-18 -18 -47 -44 -65 -59 -52 -43 -45 -75 31 -142 l62 -56 5
-158 c5 -152 6 -160 33 -200 32 -49 85 -79 147 -84 l45 -3 0 65 c0 65 0 65
-30 68 -60 7 -65 20 -65 174 0 154 -9 190 -61 244 l-30 31 35 37 c47 49 56 87
56 246 0 157 8 180 66 180 l34 0 0 65 0 65 -37 -1 c-21 0 -51 -5 -67 -9z"/>
<path d="M3440 3027 l0 -65 35 -6 c19 -4 39 -15 45 -26 5 -10 10 -75 10 -145
0 -152 11 -201 57 -255 l35 -40 -35 -40 c-48 -52 -57 -92 -57 -247 0 -125 -1
-133 -22 -147 -12 -9 -33 -16 -45 -16 -22 0 -23 -4 -23 -65 l0 -65 38 0 c58 1
122 39 157 94 28 46 29 52 33 199 l4 152 59 56 c70 65 78 103 32 142 -14 12
-41 35 -60 51 l-33 28 0 118 c0 149 -12 215 -49 260 -36 45 -75 67 -133 75
l-48 7 0 -65z"/>
<path d="M2561 3013 c-22 -18 -44 -77 -33 -87 13 -14 51 -4 65 17 l15 22 41
-22 c40 -23 75 -28 106 -17 18 7 45 54 45 79 0 21 -48 20 -73 -2 -18 -17 -21
-16 -57 5 -47 27 -80 28 -109 5z"/>
<path d="M1780 2930 l0 -50 80 0 80 0 0 -116 c0 -63 -5 -124 -10 -135 -15 -26
-70 -25 -104 2 l-28 22 -31 -39 c-18 -21 -32 -43 -32 -49 0 -5 25 -23 55 -38
47 -25 64 -28 115 -24 98 7 148 44 164 120 l7 32 18 -35 c26 -49 45 -69 89
-91 52 -27 49 -47 -10 -51 l-46 -3 -61 -142 c-33 -79 -63 -143 -67 -143 -3 0
-33 64 -65 143 l-59 142 -73 3 c-39 2 -72 2 -72 0 0 -2 44 -106 98 -233 l98
-230 68 0 69 0 88 205 88 205 45 -3 c38 -3 49 0 72 23 18 18 24 33 20 49 -4
17 1 26 22 38 15 9 36 26 46 37 l19 21 31 -36 c51 -58 153 -67 207 -18 18 16
19 16 19 -4 0 -20 5 -22 60 -22 l60 0 0 58 0 57 21 -32 c61 -96 228 -117 315
-41 48 42 67 83 66 144 -1 120 -90 191 -227 182 -74 -5 -124 -33 -160 -92
l-23 -38 -6 29 c-8 35 -49 77 -89 92 -61 23 -247 1 -247 -30 0 -4 8 -24 17
-44 14 -29 21 -35 38 -30 88 27 127 25 151 -9 14 -21 14 -21 -60 -27 -40 -4
-88 -14 -106 -23 -18 -9 -34 -16 -35 -16 -1 0 -5 18 -8 40 -12 95 -101 155
-217 148 -80 -4 -138 -37 -169 -95 l-20 -38 -1 118 0 117 -150 0 -150 0 0 -50z
m557 -172 c31 -29 32 -99 3 -128 -47 -47 -130 -9 -130 60 0 78 74 118 127 68z
m743 12 c43 -23 43 -127 0 -150 -35 -19 -77 -12 -99 16 -59 74 18 177 99 134z
m-370 -128 c0 -30 -34 -54 -72 -50 -26 2 -34 8 -36 27 -5 30 12 41 66 41 34 0
42 -3 42 -18z"/>
<path d="M2400 2410 c0 -50 -12 -64 -37 -39 -5 5 -37 9 -69 7 l-59 -3 -3 -182
-2 -183 65 0 65 0 0 130 c0 123 1 130 20 130 18 0 20 -7 20 -80 0 -139 37
-183 153 -183 74 0 84 10 68 64 -11 37 -15 40 -38 34 -42 -10 -53 9 -53 91 l0
74 40 0 40 0 0 45 0 45 -40 0 -40 0 0 50 0 50 -65 0 -65 0 0 -50z"/>
<path d="M2715 2361 c-131 -59 -149 -239 -32 -318 104 -71 264 -36 316 69 l21
43 0 -72 0 -73 65 0 65 0 0 109 c0 106 1 110 26 130 15 12 40 21 55 21 28 0
29 1 29 55 0 53 -1 55 -27 55 -16 0 -43 -9 -60 -20 -33 -20 -33 -20 -33 0 0
18 -7 20 -60 20 l-60 0 0 -72 c-1 -69 -1 -71 -14 -43 -18 40 -62 83 -104 101
-48 20 -139 17 -187 -5z m146 -100 c19 -15 24 -29 24 -64 0 -59 -25 -87 -75
-87 -59 0 -91 52 -70 115 19 56 75 73 121 36z"/>
</g>
</svg>
